<?xml version="1.0" standalone="no"?><!DOCTYPE svg PUBLIC "-//W3C//DTD SVG 1.1//EN" "http://www.w3.org/Graphics/SVG/1.1/DTD/svg11.dtd"><svg t="1637029280720" class="icon" viewBox="0 0 1024 1024" version="1.1" xmlns="http://www.w3.org/2000/svg" p-id="3868" xmlns:xlink="http://www.w3.org/1999/xlink" width="200" height="200" fill="#fff"><defs><style type="text/css"></style></defs><path d="M800 128 288 128C252.8 128 224 156.8 224 192l0 64L192 256C172.8 256 160 268.8 160 288s12.8 32 32 32l32 0 0 160L192 480c-19.2 0-32 12.8-32 32s12.8 32 32 32l32 0 0 160L192 704c-19.2 0-32 12.8-32 32s12.8 32 32 32l32 0 0 64c0 35.2 28.8 64 64 64l512 0c35.2 0 64-28.8 64-64L864 192C864 156.8 835.2 128 800 128zM800 832 288 832 288 192l512 0L800 832z" p-id="3869"></path><path d="M384 544l320 0c19.2 0 32-12.8 32-32l0-160c0-19.2-12.8-32-32-32L384 320c-19.2 0-32 12.8-32 32l0 160C352 531.2 364.8 544 384 544zM416 384l256 0 0 96-256 0L416 384z" p-id="3870"></path></svg>